<svg xmlns="http://www.w3.org/2000/svg" xmlns:xlink="http://www.w3.org/1999/xlink" width="500" zoomAndPan="magnify" viewBox="0 0 375 374.999991" height="500" preserveAspectRatio="xMidYMid meet" version="1.0"><defs><filter x="0%" y="0%" width="100%" height="100%" id="e91f00e2ea"><feColorMatrix values="0 0 0 0 1 0 0 0 0 1 0 0 0 0 1 0 0 0 1 0" color-interpolation-filters="sRGB"/></filter><mask id="4d9757ab4d"><g filter="url(#e91f00e2ea)"><rect x="-37.5" width="450" fill="#000000" y="-37.499999" height="449.999989" fill-opacity="0.26"/></g></mask><clipPath id="9236d6f28e"><path d="M 0 0.9375 L 367.5 0.9375 L 367.5 292.6875 L 0 292.6875 Z M 0 0.9375 " clip-rule="nonzero"/></clipPath><clipPath id="c829a2ea79"><rect x="0" width="368" y="0" height="294"/></clipPath><clipPath id="b4d1bccb6d"><path d="M 0 41.71875 L 375 41.71875 L 375 333.46875 L 0 333.46875 Z M 0 41.71875 " clip-rule="nonzero"/></clipPath></defs><g mask="url(#4d9757ab4d)"><g transform="matrix(1, 0, 0, 1, 0, 45)"><g clip-path="url(#c829a2ea79)"><g clip-path="url(#9236d6f28e)"><path fill="#b38728" d="M 96.4375 49.59375 C 96.4375 52.527344 94.058594 54.90625 91.125 54.90625 L 32.699219 54.90625 C 29.765625 54.90625 27.386719 52.527344 27.386719 49.59375 C 27.386719 46.660156 29.765625 44.28125 32.699219 44.28125 L 91.125 44.28125 C 94.058594 44.28125 96.4375 46.660156 96.4375 49.59375 Z M 138.902344 39.140625 C 133.136719 39.140625 128.449219 43.808594 128.449219 49.59375 C 128.449219 55.378906 133.136719 60.027344 138.902344 60.027344 C 144.667969 60.027344 149.335938 55.359375 149.335938 49.59375 C 149.335938 43.828125 144.667969 39.140625 138.902344 39.140625 Z M 181.644531 39.140625 C 175.878906 39.140625 171.214844 43.808594 171.214844 49.59375 C 171.214844 55.378906 175.878906 60.027344 181.644531 60.027344 C 187.410156 60.027344 192.101562 55.359375 192.101562 49.59375 C 192.101562 43.828125 187.410156 39.140625 181.644531 39.140625 Z M 91.125 130.929688 L 32.699219 130.929688 C 29.765625 130.929688 27.386719 133.308594 27.386719 136.242188 C 27.386719 139.175781 29.765625 141.558594 32.699219 141.558594 L 91.125 141.558594 C 94.058594 141.558594 96.4375 139.175781 96.4375 136.242188 C 96.4375 133.308594 94.058594 130.929688 91.125 130.929688 Z M 138.902344 146.699219 C 144.667969 146.699219 149.335938 142.03125 149.335938 136.242188 C 149.335938 130.457031 144.667969 125.808594 138.902344 125.808594 C 133.136719 125.808594 128.449219 130.476562 128.449219 136.242188 C 128.449219 142.007812 133.136719 146.699219 138.902344 146.699219 Z M 181.648438 146.699219 C 187.410156 146.699219 192.101562 142.03125 192.101562 136.242188 C 192.101562 130.457031 187.410156 125.808594 181.648438 125.808594 C 175.882812 125.808594 171.214844 130.476562 171.214844 136.242188 C 171.214844 142.007812 175.882812 146.699219 181.648438 146.699219 Z M 367.441406 244.488281 C 367.441406 270.949219 346.878906 291.589844 319.605469 292.5 C 319.546875 292.503906 319.488281 292.503906 319.429688 292.503906 L 128.253906 292.503906 C 111.488281 292.503906 96.628906 284.238281 87.503906 271.574219 L 13.511719 271.574219 C 1.957031 271.574219 -7.441406 262.171875 -7.441406 250.621094 L -7.441406 195.226562 C -7.441406 189.015625 -4.722656 183.429688 -0.414062 179.589844 C -4.722656 175.75 -7.441406 170.164062 -7.441406 163.949219 L -7.441406 108.558594 C -7.441406 102.347656 -4.722656 96.761719 -0.414062 92.921875 C -4.722656 89.078125 -7.441406 83.492188 -7.441406 77.28125 L -7.441406 21.886719 C -7.441406 10.332031 1.957031 0.933594 13.511719 0.933594 L 211.289062 0.933594 C 222.828125 0.933594 232.21875 10.332031 232.21875 21.886719 L 232.21875 77.28125 C 232.21875 83.492188 229.5 89.078125 225.199219 92.917969 C 229.503906 96.757812 232.21875 102.34375 232.21875 108.554688 L 232.21875 137.011719 C 240.609375 133.554688 249.71875 131.703125 259.132812 131.703125 C 296.398438 131.703125 327.039062 160.824219 329.449219 197.503906 C 351.40625 202.140625 367.441406 221.585938 367.441406 244.488281 Z M 13.511719 87.605469 L 211.289062 87.605469 C 216.96875 87.605469 221.59375 82.972656 221.59375 77.28125 L 221.59375 21.886719 C 221.59375 16.191406 216.96875 11.5625 211.289062 11.5625 L 13.511719 11.5625 C 7.816406 11.5625 3.1875 16.195312 3.1875 21.886719 L 3.1875 77.28125 C 3.1875 82.972656 7.816406 87.605469 13.511719 87.605469 Z M 13.511719 174.273438 L 135.4375 174.273438 C 145.605469 161.902344 160.972656 154.269531 177.878906 154.269531 C 186.503906 154.269531 194.945312 156.28125 202.570312 160.125 C 207.84375 153.019531 214.308594 147.082031 221.589844 142.496094 L 221.589844 108.558594 C 221.589844 102.863281 216.96875 98.234375 211.289062 98.234375 L 13.511719 98.234375 C 7.816406 98.234375 3.1875 102.863281 3.1875 108.558594 L 3.1875 163.949219 C 3.1875 169.644531 7.816406 174.273438 13.511719 174.273438 Z M 81.652344 260.945312 C 79.335938 255.175781 78.046875 248.882812 78.046875 242.296875 C 78.046875 237.457031 78.734375 232.734375 80.042969 228.226562 L 32.699219 228.226562 C 29.765625 228.226562 27.386719 225.847656 27.386719 222.914062 C 27.386719 219.980469 29.765625 217.601562 32.699219 217.601562 L 84.519531 217.601562 C 86.855469 213.480469 89.785156 209.664062 93.289062 206.269531 C 102.125 197.695312 113.488281 192.769531 125.648438 192.152344 C 126.464844 189.640625 127.457031 187.222656 128.597656 184.902344 L 13.511719 184.902344 C 7.816406 184.902344 3.1875 189.535156 3.1875 195.226562 L 3.1875 250.617188 C 3.1875 256.3125 7.816406 260.945312 13.511719 260.945312 Z M 356.816406 244.488281 C 356.816406 225.4375 342.574219 209.464844 323.691406 207.324219 C 321.011719 207.023438 318.980469 204.753906 318.976562 202.054688 C 318.917969 169.125 292.070312 142.332031 259.132812 142.332031 C 238.601562 142.332031 219.738281 152.671875 208.667969 169.996094 C 207.097656 172.453125 203.835938 173.183594 201.367188 171.632812 C 194.339844 167.226562 186.21875 164.894531 177.882812 164.894531 C 157.386719 164.894531 139.6875 178.789062 134.835938 198.679688 C 134.253906 201.066406 132.117188 202.734375 129.675781 202.734375 C 129.621094 202.734375 129.566406 202.734375 129.511719 202.734375 C 129.09375 202.71875 128.675781 202.714844 128.261719 202.714844 C 117.898438 202.714844 108.152344 206.65625 100.6875 213.898438 C 92.941406 221.410156 88.675781 231.496094 88.675781 242.296875 C 88.675781 264.121094 106.429688 281.875 128.253906 281.875 L 319.335938 281.875 C 341.058594 281.113281 356.816406 265.398438 356.816406 244.488281 Z M 267.265625 169.605469 C 250.933594 164.839844 234.507812 170.945312 225.417969 185.15625 C 223.839844 187.628906 224.5625 190.914062 227.035156 192.496094 C 229.503906 194.078125 232.792969 193.355469 234.371094 190.882812 C 242.25 178.566406 255.410156 177.21875 264.289062 179.808594 C 273.480469 182.488281 283.3125 190.542969 283.332031 205.109375 C 283.335938 208.039062 285.714844 210.414062 288.644531 210.414062 L 288.652344 210.414062 C 291.585938 210.410156 293.960938 208.027344 293.957031 205.09375 C 293.933594 188.257812 283.457031 174.328125 267.265625 169.605469 Z M 267.265625 169.605469 " fill-opacity="1" fill-rule="nonzero"/></g></g></g></g><g clip-path="url(#b4d1bccb6d)"><path fill="#aa771c" d="M 103.9375 90.375 C 103.9375 93.308594 101.558594 95.6875 98.625 95.6875 L 40.199219 95.6875 C 37.265625 95.6875 34.886719 93.308594 34.886719 90.375 C 34.886719 87.441406 37.265625 85.0625 40.199219 85.0625 L 98.625 85.0625 C 101.558594 85.0625 103.9375 87.441406 103.9375 90.375 Z M 146.402344 79.921875 C 140.636719 79.921875 135.949219 84.589844 135.949219 90.375 C 135.949219 96.160156 140.636719 100.808594 146.402344 100.808594 C 152.167969 100.808594 156.835938 96.140625 156.835938 90.375 C 156.835938 84.609375 152.167969 79.921875 146.402344 79.921875 Z M 189.144531 79.921875 C 183.378906 79.921875 178.714844 84.589844 178.714844 90.375 C 178.714844 96.160156 183.378906 100.808594 189.144531 100.808594 C 194.910156 100.808594 199.601562 96.140625 199.601562 90.375 C 199.601562 84.609375 194.910156 79.921875 189.144531 79.921875 Z M 98.625 171.710938 L 40.199219 171.710938 C 37.265625 171.710938 34.886719 174.089844 34.886719 177.023438 C 34.886719 179.957031 37.265625 182.339844 40.199219 182.339844 L 98.625 182.339844 C 101.558594 182.339844 103.9375 179.957031 103.9375 177.023438 C 103.9375 174.089844 101.558594 171.710938 98.625 171.710938 Z M 146.402344 187.480469 C 152.167969 187.480469 156.835938 182.8125 156.835938 177.023438 C 156.835938 171.238281 152.167969 166.589844 146.402344 166.589844 C 140.636719 166.589844 135.949219 171.257812 135.949219 177.023438 C 135.949219 182.789062 140.636719 187.480469 146.402344 187.480469 Z M 189.148438 187.480469 C 194.910156 187.480469 199.601562 182.8125 199.601562 177.023438 C 199.601562 171.238281 194.910156 166.589844 189.148438 166.589844 C 183.382812 166.589844 178.714844 171.257812 178.714844 177.023438 C 178.714844 182.789062 183.382812 187.480469 189.148438 187.480469 Z M 374.941406 285.269531 C 374.941406 311.730469 354.378906 332.371094 327.105469 333.28125 C 327.046875 333.285156 326.988281 333.285156 326.929688 333.285156 L 135.753906 333.285156 C 118.988281 333.285156 104.128906 325.019531 95.003906 312.355469 L 21.011719 312.355469 C 9.457031 312.355469 0.0585938 302.953125 0.0585938 291.402344 L 0.0585938 236.007812 C 0.0585938 229.796875 2.777344 224.210938 7.085938 220.371094 C 2.777344 216.53125 0.0585938 210.945312 0.0585938 204.730469 L 0.0585938 149.339844 C 0.0585938 143.128906 2.777344 137.542969 7.085938 133.703125 C 2.777344 129.859375 0.0585938 124.273438 0.0585938 118.0625 L 0.0585938 62.667969 C 0.0585938 51.113281 9.457031 41.714844 21.011719 41.714844 L 218.789062 41.714844 C 230.328125 41.714844 239.71875 51.113281 239.71875 62.667969 L 239.71875 118.0625 C 239.71875 124.273438 237 129.859375 232.699219 133.699219 C 237.003906 137.539062 239.71875 143.125 239.71875 149.335938 L 239.71875 177.792969 C 248.109375 174.335938 257.21875 172.484375 266.632812 172.484375 C 303.898438 172.484375 334.539062 201.605469 336.949219 238.285156 C 358.90625 242.921875 374.941406 262.367188 374.941406 285.269531 Z M 21.011719 128.386719 L 218.789062 128.386719 C 224.46875 128.386719 229.09375 123.753906 229.09375 118.0625 L 229.09375 62.667969 C 229.09375 56.972656 224.46875 52.34375 218.789062 52.34375 L 21.011719 52.34375 C 15.316406 52.34375 10.6875 56.976562 10.6875 62.667969 L 10.6875 118.0625 C 10.6875 123.753906 15.316406 128.386719 21.011719 128.386719 Z M 21.011719 215.054688 L 142.9375 215.054688 C 153.105469 202.683594 168.472656 195.050781 185.378906 195.050781 C 194.003906 195.050781 202.445312 197.0625 210.070312 200.90625 C 215.34375 193.800781 221.808594 187.863281 229.089844 183.277344 L 229.089844 149.339844 C 229.089844 143.644531 224.46875 139.015625 218.789062 139.015625 L 21.011719 139.015625 C 15.316406 139.015625 10.6875 143.644531 10.6875 149.339844 L 10.6875 204.730469 C 10.6875 210.425781 15.316406 215.054688 21.011719 215.054688 Z M 89.152344 301.726562 C 86.835938 295.957031 85.546875 289.664062 85.546875 283.078125 C 85.546875 278.238281 86.234375 273.515625 87.542969 269.007812 L 40.199219 269.007812 C 37.265625 269.007812 34.886719 266.628906 34.886719 263.695312 C 34.886719 260.761719 37.265625 258.382812 40.199219 258.382812 L 92.019531 258.382812 C 94.355469 254.261719 97.285156 250.445312 100.789062 247.050781 C 109.625 238.476562 120.988281 233.550781 133.148438 232.933594 C 133.964844 230.421875 134.957031 228.003906 136.097656 225.683594 L 21.011719 225.683594 C 15.316406 225.683594 10.6875 230.316406 10.6875 236.007812 L 10.6875 291.398438 C 10.6875 297.09375 15.316406 301.726562 21.011719 301.726562 Z M 364.316406 285.269531 C 364.316406 266.21875 350.074219 250.246094 331.191406 248.105469 C 328.511719 247.804688 326.480469 245.535156 326.476562 242.835938 C 326.417969 209.90625 299.570312 183.113281 266.632812 183.113281 C 246.101562 183.113281 227.238281 193.453125 216.167969 210.777344 C 214.597656 213.234375 211.335938 213.964844 208.867188 212.414062 C 201.839844 208.007812 193.71875 205.675781 185.382812 205.675781 C 164.886719 205.675781 147.1875 219.570312 142.335938 239.460938 C 141.753906 241.847656 139.617188 243.515625 137.175781 243.515625 C 137.121094 243.515625 137.066406 243.515625 137.011719 243.515625 C 136.59375 243.5 136.175781 243.496094 135.761719 243.496094 C 125.398438 243.496094 115.652344 247.4375 108.1875 254.679688 C 100.441406 262.191406 96.175781 272.277344 96.175781 283.078125 C 96.175781 304.902344 113.929688 322.65625 135.753906 322.65625 L 326.835938 322.65625 C 348.558594 321.894531 364.316406 306.179688 364.316406 285.269531 Z M 274.765625 210.386719 C 258.433594 205.621094 242.007812 211.726562 232.917969 225.9375 C 231.339844 228.410156 232.0625 231.695312 234.535156 233.277344 C 237.003906 234.859375 240.292969 234.136719 241.871094 231.664062 C 249.75 219.347656 262.910156 218 271.789062 220.589844 C 280.980469 223.269531 290.8125 231.324219 290.832031 245.890625 C 290.835938 248.820312 293.214844 251.195312 296.144531 251.195312 L 296.152344 251.195312 C 299.085938 251.191406 301.460938 248.808594 301.457031 245.875 C 301.433594 229.039062 290.957031 215.109375 274.765625 210.386719 Z M 274.765625 210.386719 " fill-opacity="1" fill-rule="nonzero"/></g></svg>